Coordinates
version=1
nRows=8
nColumns=63
inDegrees=yes

Units are S.I. units (second, meters, Newtons, ...)
If the header above contains a line with 'inDegrees', this indicates whether rotational values are in degrees (yes) or radians (no).

endheader
time	pelvis_tilt	pelvis_list	pelvis_rotation	pelvis_tx	pelvis_ty	pelvis_tz	hip_flexion_r	hip_adduction_r	hip_rotation_r	knee_angle_r	knee_angle_r_beta	ankle_angle_r	subtalar_angle_r	mtp_angle_r	hip_flexion_l	hip_adduction_l	hip_rotation_l	knee_angle_l	knee_angle_l_beta	ankle_angle_l	subtalar_angle_l	mtp_angle_l	L5_S1_Flex_Ext	L5_S1_Lat_Bending	L5_S1_axial_rotation	L4_L5_Flex_Ext	L4_L5_Lat_Bending	L4_L5_axial_rotation	L3_L4_Flex_Ext	L3_L4_Lat_Bending	L3_L4_axial_rotation	L2_L3_Flex_Ext	L2_L3_Lat_Bending	L2_L3_axial_rotation	L1_L2_Flex_Ext	L1_L2_Lat_Bending	L1_L2_axial_rotation	L1_T12_Flex_Ext	L1_T12_Lat_Bending	L1_T12_axial_rotation	Abs_r3	Abs_r2	Abs_r1	Abs_t1	Abs_t2	neck_flexion	neck_bending	neck_rotation	arm_flex_r	arm_add_r	arm_rot_r	elbow_flex_r	pro_sup_r	wrist_flex_r	wrist_dev_r	arm_flex_l	arm_add_l	arm_rot_l	elbow_flex_l	pro_sup_l	wrist_flex_l	wrist_dev_l
3.019608	0.172814	-30.428471	88.154707	0.206827	0.663005	0.678105	28.651613	2.717480	-5.758040	0.693456	0.012103	6.257975	1.812331	0.000000	33.631052	-1.086551	-14.545042	8.585559	0.149846	15.475689	5.388795	0.000000	-0.336538	0.204067	0.740804	-0.624985	0.271409	0.787104	-0.552899	0.496168	0.787104	-0.384630	0.496168	0.648204	-0.312509	0.416133	0.601903	-0.192298	0.316099	0.555603	-2.403860	2.308443	4.120130	0.000000	0.000000	25.604667	-3.971813	1.691601	-145.599656	-162.084248	-119.982295	19.573919	75.002392	-21.805918	-6.554086	-142.897996	-173.923388	-25.684868	0.373716	15.682735	-19.705825	-3.598419
3.039216	0.344139	-31.476385	88.282097	0.205605	0.659710	0.682517	29.814382	2.808190	-5.122336	0.457256	0.007981	5.816014	0.792426	0.000000	35.473715	-1.237093	-14.373643	9.547418	0.166634	15.834361	5.062484	0.000000	-0.329164	0.247566	0.704809	-0.611290	0.329263	0.748859	-0.540783	0.601932	0.748859	-0.376201	0.601932	0.616708	-0.305661	0.504836	0.572657	-0.188084	0.383480	0.528607	-2.351184	2.800515	3.919935	0.000000	0.000000	25.896290	-3.964084	2.239913	-145.148162	-162.081326	-120.965228	19.916489	71.723738	-20.732095	-6.874489	-142.322918	-174.250131	-26.944583	0.421103	11.890806	-18.913430	-5.243629
3.058824	0.609739	-32.467690	88.503327	0.204189	0.656461	0.686796	30.940218	2.919684	-4.523958	0.286603	0.005002	5.388606	-0.276544	0.000000	37.311680	-1.420600	-14.068351	10.623327	0.185412	16.207392	4.649475	0.000000	-0.319024	0.302666	0.656332	-0.592459	0.402546	0.697352	-0.524124	0.735903	0.697352	-0.364612	0.735903	0.574290	-0.296245	0.617197	0.533269	-0.182290	0.468830	0.492249	-2.278754	3.423823	3.650319	0.000000	0.000000	26.213655	-4.035222	2.963439	-144.696902	-161.992095	-121.853398	20.386267	68.466369	-19.672798	-7.183699	-141.775756	-174.599369	-27.899321	0.473570	8.186047	-18.211465	-6.716697
3.078431	0.977417	-33.422829	88.833739	0.202638	0.653207	0.690923	32.051912	3.054679	-3.963503	0.175871	0.003070	4.988797	-1.407876	0.000000	39.167009	-1.639746	-13.647475	11.814274	0.206198	16.580324	4.167407	0.000000	-0.302967	0.368438	0.592270	-0.562640	0.490022	0.629287	-0.497745	0.895819	0.629287	-0.346261	0.895819	0.518236	-0.281335	0.751318	0.481220	-0.173115	0.570710	0.444203	-2.164064	4.167840	3.294029	0.000000	0.000000	26.555205	-4.174640	3.778851	-144.155120	-161.857985	-122.273195	20.836986	65.335502	-18.614752	-7.447474	-141.262796	-174.964906	-28.663474	0.526701	5.003315	-17.609358	-7.934820
3.098039	1.466977	-34.334651	89.310614	0.201005	0.649955	0.694871	33.124824	3.228615	-3.245061	0.080662	0.001408	4.549009	-2.913587	0.000000	41.024521	-1.895515	-13.127341	13.097615	0.228597	16.960989	3.703854	0.000000	-0.282685	0.445836	0.505376	-0.524974	0.592962	0.536962	-0.464423	1.084006	0.536962	-0.323080	1.084006	0.442204	-0.262501	0.909149	0.410618	-0.161526	0.690600	0.379032	-2.019189	5.043388	2.810747	0.000000	0.000000	26.905010	-4.376073	4.679071	-143.374387	-161.765262	-121.358146	21.083482	62.187666	-17.709762	-7.599505	-140.775773	-175.338650	-29.141195	0.575014	2.622722	-17.141220	-8.713918
3.117647	1.995583	-35.210642	89.842471	0.199489	0.646746	0.698641	34.190856	3.411814	-2.644835	0.045464	0.000793	4.218324	-4.265820	0.000000	42.850152	-2.198705	-12.776862	14.432209	0.251890	17.368618	3.538576	0.000000	-0.257581	0.523770	0.407501	-0.478355	0.696614	0.432970	-0.423181	1.273494	0.432970	-0.294390	1.273494	0.356563	-0.239190	1.068072	0.331094	-0.147182	0.811320	0.305626	-1.839879	5.924990	2.266397	0.000000	0.000000	27.235268	-4.585959	5.548340	-142.396029	-161.751601	-119.419020	21.098511	59.781990	-16.968954	-7.450985	-140.304494	-175.694260	-29.340277	0.614905	1.384572	-16.872884	-8.948842
3.137255	2.514242	-36.023284	90.385571	0.198210	0.643698	0.702175	35.225497	3.584459	-2.198326	0.080256	0.001401	4.023357	-5.366602	0.000000	44.555832	-2.506333	-12.514832	15.703812	0.274083	17.741227	3.524795	0.000000	-0.230980	0.595298	0.301825	-0.428953	0.791746	0.320689	-0.379477	1.447407	0.320689	-0.263987	1.447407	0.264097	-0.214488	1.213931	0.245233	-0.131982	0.922116	0.226369	-1.649869	6.734126	1.678660	0.000000	0.000000	27.523876	-4.753916	6.343851	-141.237172	-161.827702	-116.662632	20.891112	58.347249	-16.459163	-6.921068	-139.848004	-176.002827	-29.116322	0.644091	1.220071	-16.839981	-8.588303
3.156863	2.981550	-36.736754	90.905992	0.197232	0.640922	0.705345	36.189160	3.722855	-1.956311	0.195205	0.003407	4.008003	-6.098534	0.000000	46.073785	-2.786710	-12.315287	16.869370	0.294426	18.075483	3.581872	0.000000	-0.205310	0.653906	0.192854	-0.381281	0.869694	0.204907	-0.337304	1.589906	0.204907	-0.234649	1.589906	0.168747	-0.190651	1.333444	0.156694	-0.117314	1.012900	0.144640	-1.466509	7.397111	1.072594	0.000000	0.000000	27.730117	-4.826905	6.965422	-140.003625	-161.960709	-113.559309	20.559871	57.912794	-16.256302	-6.058690	-139.425914	-176.260783	-28.490776	0.660954	2.003442	-17.052277	-7.592590
